SplineFontDB: 3.0
FontName: Whois-mono
FullName: Whois-mono
FamilyName: Whois
Weight: Medium
Copyright: Created by raphael with FontForge 2.0 (http://fontforge.sf.net)
UComments: "2012-6-10: Created." 
Version: 001.000
ItalicAngle: 0
UnderlinePosition: -80
UnderlineWidth: 40
Ascent: 620
Descent: 180
LayerCount: 2
Layer: 0 0 "Back"  1
Layer: 1 0 "Fore"  0
NeedsXUIDChange: 1
XUID: [1021 366 1577494475 6750967]
FSType: 0
OS2Version: 0
OS2_WeightWidthSlopeOnly: 0
OS2_UseTypoMetrics: 1
CreationTime: 1339350769
ModificationTime: 1339520786
OS2TypoAscent: 0
OS2TypoAOffset: 1
OS2TypoDescent: 0
OS2TypoDOffset: 1
OS2TypoLinegap: 72
OS2WinAscent: 0
OS2WinAOffset: 1
OS2WinDescent: 0
OS2WinDOffset: 1
HheadAscent: 0
HheadAOffset: 1
HheadDescent: 0
HheadDOffset: 1
DEI: 91125
Encoding: ISO8859-1
UnicodeInterp: none
NameList: Adobe Glyph List
DisplaySize: -24
AntiAlias: 1
FitToEm: 1
WinInfo: 0 16 10
Grid
-800 520 m 0
 1600 520 l 0
  Named: "top" 
-800 -130 m 0
 1600 -130 l 0
  Named: "lowercase desc" 
-800 390.4 m 0
 1600 390.4 l 0
  Named: "lowercase top" 
EndSplineSet
BeginChars: 256 256

StartChar: a
Encoding: 97 97 0
Width: 390
VWidth: 0
Flags: HW
LayerCount: 2
Fore
SplineSet
80 348 m 0
 100 372 136 390 188 390 c 0
 240 390 277 370 296 337 c 0
 312 310 310 263 310 224 c 0
 310 185 310 150 310 107 c 1
 310 107 309 79 314 68 c 0
 319 57 324.667 47 350 43 c 1
 350 -1 l 1
 297 2 279 34 279 34 c 1
 277 34 l 1
 277 34 240 0 163 0 c 0
 107 0 69 30 53 63 c 0
 37 96 39 126 47 149 c 0
 63 194 100 217 138 224 c 0
 158 227 178 227 199 227 c 0
 218 227 239 226 259 226 c 1
 259 264 260 298 252 312 c 0
 242 329 229 339 188 339 c 0
 147 339 130 327 119 315 c 0
 108 303 104 286 102 272 c 1
 55 280 l 1
 55 296 60 324 80 348 c 0
244 70 m 0
 255 79 258 89 259 93 c 0
 260 97 259 175 259 175 c 1
 221 175 184 179 146 174 c 1
 117 169 101.333 162.333 94 132 c 0
 92.0622 123.985 91.5488 100.793 100 83 c 0
 106.333 69.667 122 51 164 50 c 0
 208 49 232 59 244 70 c 0
EndSplineSet
Validated: 524321
EndChar

StartChar: b
Encoding: 98 98 1
Width: 390
VWidth: 0
Flags: HW
LayerCount: 2
Fore
SplineSet
36 520 m 5
 86 520 l 5
 86 344 l 1
 111 371 148 390 194 390 c 0
 250 390 294 360 318 322 c 0
 342 284 354 237 354 195 c 0
 354 153 342 106 318 68 c 0
 294 30 251 0 194 0 c 0
 148 0 111 19 86 46 c 1
 76 0 l 1
 36 0 l 1
 36 195 l 1
 36 520 l 5
194 339 m 0
 153 339 131 322 114 295 c 0
 97 268 86 230 86 195 c 0
 86 160 97 122 114 95 c 0
 131 68 153 51 194 51 c 0
 235 51 259 68 276 95 c 0
 293 122 302 160 302 195 c 0
 302 230 293 268 276 295 c 0
 259 322 235 339 194 339 c 0
EndSplineSet
Validated: 1
EndChar

StartChar: at
Encoding: 64 64 2
Width: 390
VWidth: 0
Flags: HWO
LayerCount: 2
Fore
SplineSet
218 487.4 m 0
 269.997 487.939 326 457.4 345 424.4 c 0
 361 397.4 369 375.4 369 336.4 c 0
 369 297.4 369 268 369 225 c 1
 369 123 286.797 108 259 108 c 0
 203 108 165 138 149 171 c 0
 133 204 135.857 241.45 144 264.4 c 0
 177 357.4 261.53 338.4 318 338.4 c 1
 318 376.4 309 385.4 301 399.4 c 0
 291 416.4 259 436.4 218 436.4 c 0
 82 436.4 71 301.4 71 236.4 c 0
 71 126.352 122 46 209 46 c 0
 252 46 271 51 332 60 c 1
 332 14 l 1
 280 6 266 0 207 0 c 0
 74.8906 0 21 115.292 21 247.4 c 0
 21 377.4 83 486 218 487.4 c 0
318 290.4 m 1
 280 290.4 285 290.4 256 289.4 c 0
 229.449 288.484 198.333 275.733 191 245.4 c 0
 189.062 237.385 187.549 208.793 196 191 c 0
 202.333 177.667 217.992 158.575 260 158 c 0
 333 157 318 249 318 290.4 c 1
EndSplineSet
Validated: 524321
EndChar

StartChar: c
Encoding: 99 99 3
Width: 390
VWidth: 0
Flags: HW
LayerCount: 2
Fore
SplineSet
198 390 m 0
 238 390 272 376 296 353 c 0
 320 330 333 298 336 264 c 1
 286 260 l 1
 284 284 274 304 260 317 c 0
 246 330 227 339 198 339 c 0
 157 339 138 323 122 296 c 0
 106 269 100 231 100 195 c 0
 100 160 109 122 126 95 c 0
 143 68 167 51 208 51 c 0
 236 51 253 59 266 71 c 0
 279 83 287 101 290 122 c 1
 340 114 l 1
 335 85 322 56 300 35 c 0
 278 14 246 0 208 0 c 0
 151 0 108 30 84 68 c 0
 60 106 50 153 50 195 c 0
 50 237 56 284 78 322 c 0
 100 360 142 390 198 390 c 0
EndSplineSet
Validated: 1
EndChar

StartChar: d
Encoding: 100 100 4
Width: 390
VWidth: 0
Flags: HW
LayerCount: 2
Fore
SplineSet
303 520 m 1
 353 520 l 1
 353 0 l 1
 312 0 l 1
 303 46 l 1
 278 19 241 0 195 0 c 0
 138 0 95 30 71 68 c 0
 47 106 37 153 37 195 c 0
 37 237 47 284 71 322 c 0
 95 360 139 390 195 390 c 0
 241 390 278 372 303 344 c 1
 303 520 l 1
195 339 m 0
 154 339 131 322 114 295 c 0
 97 268 88 230 88 195 c 0
 88 160 96 122 113 95 c 0
 130 68 154 51 195 51 c 0
 236 51 259 68 276 95 c 0
 293 122 303 160 303 195 c 0
 303 230 293 268 276 295 c 0
 259 322 236 339 195 339 c 0
EndSplineSet
Validated: 1
EndChar

StartChar: e
Encoding: 101 101 5
Width: 390
VWidth: 0
Flags: HW
LayerCount: 2
Fore
SplineSet
98 174 m 1
 100 141 107 110 121 90 c 0
 137 66 159 53 194 51 c 0
 194 51 l 0
 226 51 246 60 260 72 c 0
 274 84 282 99 287 115 c 1
 336 100 l 1
 329 78 315 53 292 33 c 0
 269 13 236 0 194 0 c 2
 193 0 l 1
 193 0 l 1
 143 2 103 26 79 62 c 0
 55 98 46 142 46 189 c 0
 46 235 52 284 74 322 c 0
 96 360 137 388 193 389 c 1
 194 389 l 1
 194 389 l 2
 232 388 271 379 300 348 c 0
 329 317 344 267 343 198 c 2
 343 174 l 1
 98 174 l 1
177 336 m 0
 141 330 104 295 100 224 c 1
 291 224 l 1
 289 270 280 293 264 313 c 0
 248 333 213 342 177 336 c 0
EndSplineSet
Validated: 37
EndChar

StartChar: f
Encoding: 102 102 6
Width: 390
VWidth: 0
Flags: HW
LayerCount: 2
Fore
SplineSet
234 519 m 1
 287 518 336 487 354 419 c 1
 317 404 l 1
 299 457 255 474 219 468 c 0
 184 462 163 438 169 392 c 0
 172 368 176 351 178 335 c 1
 299 335 l 1
 299 284 l 1
 183 284 l 1
 183 0 l 1
 132 0 l 1
 132 284 l 1
 36 284 l 1
 36 335 l 1
 126 335 l 1
 124 350 122 364 120 385 c 0
 114 439 134 515 234 519 c 1
EndSplineSet
Validated: 33
EndChar

StartChar: g
Encoding: 103 103 7
Width: 390
VWidth: 0
Flags: HW
LayerCount: 2
Fore
SplineSet
357 416 m 1
 357 408 356 401 354 393 c 0
 347 374 333 356 305 348 c 1
 332 325 337 280 337 259 c 0
 337 205 286 135 195 134 c 0
 178 134 164 137 153 136 c 0
 126 133 116 122 114 109 c 0
 111 91 121 67 190 67 c 0
 333 67 357 6 357 -32 c 0
 357 -130 254 -131 195 -131 c 0
 146 -131 32 -131 32 -34 c 1
 31 8 66 42 108 50 c 1
 108 51 l 1
 66 62 65 88 66 104 c 0
 68 147 108 160 108 160 c 1
 108 161 l 1
 108 161 50 199 50 259 c 0
 50 364 147 390 194 390 c 0
 232 390 250 384 270 375 c 1
 287 377 305 391 306 416 c 1
 357 416 l 1
194 341 m 0
 144 341 100 315 100 259 c 0
 100 236 119 184 195 184 c 0
 268 184 287 237 287 259 c 0
 287 323 244 341 194 341 c 0
194 22 m 0
 151 22 83 18 83 -33 c 0
 83 -84 156 -89 195 -89 c 0
 234 -89 306 -85 306 -34 c 0
 306 17 237 22 194 22 c 0
EndSplineSet
Validated: 33
EndChar

StartChar: h
Encoding: 104 104 8
Width: 390
VWidth: 0
Flags: HW
LayerCount: 2
Fore
SplineSet
46 520 m 1
 96 520 l 1
 96 322 l 1
 107 357 158 388 204 388 c 0
 258 388 285 369 310 336 c 0
 328 312 344 263 344 221 c 2
 344 0 l 1
 292 0 l 1
 292 221 l 2
 292 256 285 275 273 298 c 0
 265 313 247 336 204 336 c 0
 163 336 136 319 119 292 c 0
 102 265 96 228 96 193 c 2
 96 0 l 1
 46 0 l 1
 46 193 l 1
 46 520 l 1
EndSplineSet
Validated: 1
EndChar

StartChar: i
Encoding: 105 105 9
Width: 390
VWidth: 0
Flags: HW
LayerCount: 2
Fore
SplineSet
53 390 m 1
 220 390 l 1
 220 52 l 1
 357 52 l 1
 357 0 l 1
 33 0 l 1
 33 52 l 1
 170 52 l 1
 170 339 l 1
 53 339 l 1
 53 390 l 1
243 521 m 0
 243 494 222 472 195 472 c 0
 168 472 147 494 147 521 c 0
 147 548 168 569 195 569 c 0
 222 569 243 548 243 521 c 0
EndSplineSet
Validated: 1
EndChar

StartChar: j
Encoding: 106 106 10
Width: 390
VWidth: 0
Flags: HW
LayerCount: 2
Fore
SplineSet
106 390 m 1
 326 390 l 1
 326 66 l 1
 326 66 328 -8 311 -50 c 0
 294 -92 251 -130 180 -130 c 0
 109 -130 73 -92 59 -55 c 0
 45 -18 54 16 54 16 c 1
 99 8 l 1
 99 8 96 -16 104 -37 c 0
 112 -58 124 -85 180 -85 c 0
 236 -85 252 -60 263 -31 c 0
 274 -2 273 66 273 66 c 1
 273 339 l 1
 106 339 l 1
 106 390 l 1
339 520 m 0
 339 493 318 471 291 471 c 0
 264 471 243 493 243 520 c 0
 243 547 264 569 291 569 c 0
 318 569 339 547 339 520 c 0
EndSplineSet
Validated: 33
EndChar

StartChar: k
Encoding: 107 107 11
Width: 390
VWidth: 0
Flags: HW
LayerCount: 2
Fore
SplineSet
36 520 m 5
 87 520 l 5
 87 167 l 1
 294 389 l 1
 331 355 l 1
 192 205 l 1
 354 5 l 1
 354 0 l 1
 291 0 l 1
 156 167 l 1
 87 93 l 1
 87 0 l 1
 36 0 l 1
 36 520 l 5
EndSplineSet
Validated: 1
EndChar

StartChar: l
Encoding: 108 108 12
Width: 390
VWidth: 0
Flags: HW
LayerCount: 2
Fore
SplineSet
29 520 m 1
 220 520 l 1
 220 51 l 1
 361 51 l 1
 361 0 l 1
 29 0 l 1
 29 51 l 1
 170 51 l 1
 170 470 l 1
 29 470 l 1
 29 520 l 1
EndSplineSet
Validated: 1
EndChar

StartChar: m
Encoding: 109 109 13
Width: 390
VWidth: 0
Flags: HW
LayerCount: 2
Fore
SplineSet
28 390 m 1
 69 390 l 1
 79 361 l 1
 95 377 111 391 140 390 c 0
 169 389 187 368 198 350 c 1
 214 371 235 390 273 390 c 0
 311 390 339 359 350 336 c 0
 361 313 362 292 362 280 c 2
 362 0 l 1
 310 0 l 1
 310 280 l 2
 310 289 311 304 306 315 c 0
 301 326 294 337 274 339 c 0
 258 341 245 334 234 323 c 0
 223 312 221 288 221 288 c 1
 221 0 l 1
 169 0 l 1
 169 280 l 2
 169 289 170 304 165 315 c 0
 160 326 153 337 133 339 c 0
 118 341 101 334 90 323 c 0
 83 315 79 305 79 294 c 2
 79 0 l 1
 28 0 l 1
 28 390 l 1
EndSplineSet
Validated: 33
EndChar

StartChar: n
Encoding: 110 110 14
Width: 390
VWidth: 0
Flags: HW
LayerCount: 2
Fore
SplineSet
207 390 m 0
 254 390 285 369 309 332 c 0
 333 295 334 253 334 212 c 2
 334 0 l 1
 283 0 l 1
 283 212 l 2
 283 250 280 281 269 301 c 0
 258 321 244 334 211 339 c 0
 166 346 107 333 107 246 c 2
 107 0 l 1
 56 0 l 1
 56 390 l 1
 100 390 l 1
 107 355 l 1
 131 375 160 390 207 390 c 0
EndSplineSet
Validated: 33
EndChar

StartChar: o
Encoding: 111 111 15
Width: 390
VWidth: 0
Flags: HW
LayerCount: 2
Fore
SplineSet
195 390 m 0
 252 390 295 361 319 323 c 0
 343 285 354 238 354 196 c 0
 354 154 343 105 319 67 c 0
 295 29 251 0 194 0 c 0
 137 0 93 29 69 67 c 0
 45 105 36 154 36 196 c 0
 36 238 46 285 70 323 c 0
 94 361 138 390 195 390 c 0
195 339 m 0
 154 339 131 322 114 295 c 0
 97 268 87 230 87 196 c 0
 87 162 95 121 112 94 c 0
 129 67 152 50 194 50 c 0
 236 50 259 67 276 94 c 0
 293 121 303 162 303 196 c 0
 303 230 294 268 277 295 c 0
 260 322 236 339 195 339 c 0
EndSplineSet
Validated: 1
EndChar

StartChar: p
Encoding: 112 112 16
Width: 390
VWidth: 0
Flags: HW
LayerCount: 2
Fore
SplineSet
37 390 m 1
 78 390 l 1
 88 341 l 1
 113 369 149 389 195 389 c 0
 251 389 295 360 319 322 c 0
 343 284 353 236 353 194 c 0
 353 152 343 104 319 66 c 0
 295 28 252 -1 195 -1 c 0
 149 -1 113 18 88 46 c 1
 88 -130 l 1
 37 -130 l 1
 37 390 l 1
195 338 m 0
 154 338 126 321 109 294 c 0
 92 267 88 229 88 194 c 0
 88 159 91 121 108 94 c 0
 125 67 154 50 195 50 c 0
 236 50 260 67 277 94 c 0
 294 121 302 159 302 194 c 0
 302 229 294 267 277 294 c 0
 260 321 236 338 195 338 c 0
EndSplineSet
Validated: 1
EndChar

StartChar: q
Encoding: 113 113 17
Width: 390
VWidth: 0
Flags: HW
LayerCount: 2
Fore
SplineSet
353 390 m 1
 353 -130 l 1
 302 -130 l 1
 302 47 l 1
 277 19 241 0 195 0 c 0
 138 0 94 29 70 67 c 0
 46 105 37 153 37 195 c 0
 37 237 47 285 71 323 c 0
 95 361 139 390 195 390 c 0
 241 390 277 370 302 342 c 1
 313 390 l 1
 353 390 l 1
195 339 m 0
 154 339 131 322 114 295 c 0
 97 268 88 230 88 195 c 0
 88 160 97 122 114 95 c 0
 131 68 154 51 195 51 c 0
 236 51 265 68 282 95 c 0
 299 122 301 160 301 195 c 0
 301 230 299 268 282 295 c 0
 265 322 236 339 195 339 c 0
EndSplineSet
Validated: 1
EndChar

StartChar: r
Encoding: 114 114 18
Width: 390
VWidth: 0
Flags: HW
LayerCount: 2
Fore
SplineSet
62 390 m 1
 105 390 l 1
 113 343 l 1
 136 366 167 383 203 389 c 0
 234 394 265 389 294 373 c 0
 323 357 347 327 350 289 c 1
 298 284 l 1
 296 305 287 318 270 328 c 0
 253 338 224 343 199 338 c 0
 159 330 116 316 116 222 c 2
 116 0 l 1
 62 0 l 1
 62 390 l 1
EndSplineSet
Validated: 33
EndChar

StartChar: s
Encoding: 115 115 19
Width: 390
VWidth: 0
Flags: HW
LayerCount: 2
Fore
SplineSet
97 359 m 0
 140 395 224 397 263 377 c 0
 302 357 320 334 327 301 c 1
 286 284 l 1
 277 308 266 322 250 330 c 0
 234 338 211 341 181 339 c 0
 155 337 132 327 119 312 c 0
 95 284 109 245 147 235 c 0
 185 225 234 214 272 203 c 0
 310 192 329 169 339 136 c 0
 349 103 339 66 314 40 c 0
 288 14 247 0 192 0 c 0
 137 0 101 13 77 35 c 0
 53 57 47 86 47 107 c 1
 94 111 l 1
 96 96 99 83 111 72 c 0
 123 61 145 50 192 50 c 0
 238 50 265 62 278 76 c 0
 291 90 295 106 290 125 c 0
 286 141 276 148 256 155 c 0
 212 169 179 177 141 187 c 0
 103 197 71 216 60 248 c 0
 47 283 54 323 97 359 c 0
EndSplineSet
Validated: 33
EndChar

StartChar: t
Encoding: 116 116 20
Width: 390
VWidth: 0
Flags: HW
LayerCount: 2
Fore
SplineSet
150 480 m 1
 201 494 l 1
 201 390 l 1
 338 390 l 1
 338 338 l 1
 201 338 l 1
 201 51 l 1
 337 51 l 1
 337 0 l 1
 150 0 l 1
 150 338 l 1
 48 338 l 1
 48 390 l 1
 150 390 l 1
 150 480 l 1
EndSplineSet
Validated: 1
EndChar

StartChar: u
Encoding: 117 117 21
Width: 390
VWidth: 0
Flags: HW
LayerCount: 2
Fore
SplineSet
184 -1 m 0
 137 -1 104 20 80 57 c 0
 56 94 56 136 56 177 c 2
 56 390 l 1
 107 390 l 1
 107 177 l 2
 107 139 110 108 121 88 c 0
 132 68 146 55 179 50 c 0
 224 43 283 55 283 142 c 2
 283 390 l 1
 334 390 l 1
 334 0 l 1
 291 0 l 1
 283 32 l 1
 259 12 231 -1 184 -1 c 0
EndSplineSet
Validated: 33
EndChar

StartChar: v
Encoding: 118 118 22
Width: 390
VWidth: 0
Flags: HW
LayerCount: 2
Fore
SplineSet
34 390 m 1
 88 390 l 1
 194 77 l 1
 196 64 l 1
 199 77 l 1
 302 390 l 1
 356 390 l 1
 226 0 l 1
 167 0 l 1
 34 390 l 1
EndSplineSet
Validated: 1
EndChar

StartChar: w
Encoding: 119 119 23
Width: 390
VWidth: 0
Flags: HW
LayerCount: 2
Fore
SplineSet
30 390 m 1
 82 390 l 1
 106 97 l 1
 171 267 l 1
 219 267 l 1
 284 98 l 1
 309 390 l 1
 360 390 l 1
 327 0 l 1
 273 0 l 1
 196 200 l 1
 195 204 l 1
 194 200 l 1
 118 0 l 1
 64 0 l 1
 30 390 l 1
EndSplineSet
Validated: 1
EndChar

StartChar: x
Encoding: 120 120 24
Width: 390
VWidth: 0
Flags: HW
LayerCount: 2
Fore
SplineSet
34 390 m 1
 96 390 l 1
 194 242 l 1
 194 241 l 1
 195 241 l 1
 195 242 l 1
 295 390 l 1
 356 390 l 1
 226 198 l 1
 360 0 l 1
 298 0 l 1
 196 152 l 1
 196 154 l 1
 195 154 l 1
 194 152 l 1
 92 0 l 1
 30 0 l 1
 164 198 l 1
 34 390 l 1
EndSplineSet
Validated: 1
EndChar

StartChar: y
Encoding: 121 121 25
Width: 390
VWidth: 0
Flags: HW
LayerCount: 2
Fore
SplineSet
34 390 m 1
 88 390 l 1
 194 109 l 1
 196 98 l 1
 198 109 l 1
 302 390 l 1
 356 390 l 1
 214 2 l 1
 214 2 189 -55 172 -78 c 0
 133 -130 69 -135 60 -136 c 1
 60 -85 l 1
 70 -83 111 -77 132 -48 c 0
 149 -25 170 31 170 31 c 1
 34 390 l 1
EndSplineSet
Validated: 1
EndChar

StartChar: z
Encoding: 122 122 26
Width: 390
VWidth: 0
Flags: HW
LayerCount: 2
Fore
SplineSet
46 390 m 1
 340 390 l 1
 340 340 l 1
 106 51 l 1
 352 51 l 1
 352 0 l 1
 38 0 l 1
 38 50 l 1
 274 339 l 1
 46 339 l 1
 46 390 l 1
EndSplineSet
Validated: 1
EndChar

StartChar: A
Encoding: 65 65 27
Width: 390
VWidth: 0
Flags: HW
LayerCount: 2
Fore
SplineSet
163 520 m 5
 227 520 l 5
 358 0 l 1
 306 0 l 1
 270 141 l 1
 120 141 l 1
 84 0 l 1
 32 0 l 1
 163 520 l 5
195 443 m 1
 194 437 l 1
 133 192 l 1
 257 192 l 1
 196 436 l 1
 195 443 l 1
EndSplineSet
Validated: 1
EndChar

StartChar: B
Encoding: 66 66 28
Width: 390
VWidth: 0
Flags: HW
LayerCount: 2
Fore
SplineSet
30 520 m 1
 30 520 135 521 188 520 c 0
 236 520 273 504 298 478 c 0
 323 452 333 418 333 385 c 0
 333 340 321 303 294 278 c 0
 290 274 286 273 284 272 c 1
 286 271 290 271 294 269 c 0
 302 264 309 259 316 253 c 0
 344 227 360 190 360 146 c 0
 360 103 347 65 321 39 c 0
 295 13 256 0 212 0 c 0
 151 0 30 0 30 0 c 1
 30 520 l 1
81 470 m 1
 81 294 l 1
 188 294 l 2
 222 294 244 301 259 315 c 0
 274 329 283 350 283 385 c 0
 283 407 275 428 261 443 c 0
 247 458 225 470 188 470 c 2
 81 470 l 1
80 241 m 1
 80 50 l 1
 212 50 l 2
 246 50 270 60 285 75 c 0
 300 90 310 113 310 146 c 0
 310 178 300 199 283 215 c 0
 266 231 239 241 204 241 c 2
 80 241 l 1
EndSplineSet
Validated: 33
EndChar

StartChar: C
Encoding: 67 67 29
Width: 390
VWidth: 0
Flags: HW
LayerCount: 2
Fore
SplineSet
205 523 m 4
 234 523 264 517 292 498 c 4
 320 479 342 447 356 401 c 5
 311 389 l 5
 300 427 280 444 263 456 c 4
 246 468 227 472 205 472 c 4
 164 472 128 451 101 390 c 4
 89 363 83 317 83 270 c 4
 83 223 91 175 102 147 c 4
 126 86 160 55 212 55 c 4
 260 55 302 100 308 143 c 5
 358 136 l 5
 348 68 289 4 212 4 c 4
 138 4 84 56 55 128 c 4
 40 166 32 218 32 269 c 4
 32 320 37 372 55 411 c 4
 88 484 144 523 205 523 c 4
EndSplineSet
Validated: 1
EndChar

StartChar: D
Encoding: 68 68 30
Width: 390
VWidth: 0
Flags: HW
LayerCount: 2
Fore
SplineSet
81 520 m 2
 122 520 156 521 196 513 c 1
 237 503 279 482 309 442 c 0
 339 402 357 346 357 269 c 0
 357 193 344 132 315 88 c 0
 286 44 242 19 189 6 c 0
 140 -6 85 -1 76 0 c 1
 33 0 l 1
 33 520 l 1
 81 520 l 2
184 464 m 0
 152 472 115 470 84 469 c 1
 83 50 l 1
 97 49 144 47 177 55 c 0
 221 66 252 84 273 116 c 0
 294 148 307 198 307 269 c 0
 307 339 291 383 269 412 c 0
 247 441 217 456 184 464 c 0
EndSplineSet
Validated: 33
EndChar

StartChar: E
Encoding: 69 69 31
Width: 390
VWidth: 0
Flags: HW
LayerCount: 2
Fore
SplineSet
32 521 m 1
 359 521 l 1
 359 471 l 1
 82 471 l 1
 82 291 l 1
 309 291 l 1
 309 240 l 1
 82 240 l 1
 82 51 l 1
 358 51 l 1
 358 0 l 1
 31 0 l 1
 32 521 l 1
EndSplineSet
Validated: 1
EndChar

StartChar: F
Encoding: 70 70 32
Width: 390
VWidth: 0
Flags: HW
LayerCount: 2
Fore
SplineSet
32 518 m 1
 358 518 l 1
 358 468 l 1
 82 468 l 1
 82 288 l 1
 336 288 l 5
 336 237 l 5
 82 237 l 1
 82 0 l 1
 32 0 l 1
 32 518 l 1
EndSplineSet
Validated: 1
EndChar

StartChar: G
Encoding: 71 71 33
Width: 390
VWidth: 0
Flags: HW
LayerCount: 2
Fore
SplineSet
205 520 m 0
 278 519 334 478 357 398 c 1
 311 386 l 1
 297 435 262 469 205 469 c 0
 164 469 129 448 102 387 c 0
 90 360 83 314 83 267 c 0
 83 220 91 171 102 143 c 0
 126 82 160 51 212 51 c 0
 257 51 297 91 307 131 c 1
 307 213 l 1
 185 213 l 1
 185 264 l 1
 358 264 l 1
 358 1 l 1
 317 1 l 1
 311 55 l 1
 295 28 258 0 212 0 c 0
 138 0 84 52 55 124 c 0
 40 162 32 215 32 266 c 0
 32 317 38 369 56 408 c 0
 89 481 144 520 205 520 c 0
EndSplineSet
Validated: 1
EndChar

StartChar: H
Encoding: 72 72 34
Width: 390
VWidth: 0
Flags: HW
LayerCount: 2
Fore
SplineSet
31 519 m 1
 82 519 l 1
 82 288 l 1
 308 288 l 1
 308 519 l 1
 359 519 l 1
 359 0 l 1
 308 0 l 1
 308 237 l 1
 82 237 l 1
 82 0 l 1
 31 0 l 1
 31 519 l 1
EndSplineSet
Validated: 1
EndChar

StartChar: I
Encoding: 73 73 35
Width: 390
VWidth: 0
Flags: HW
LayerCount: 2
Fore
SplineSet
34 520 m 1
 356 520 l 5
 356 469 l 5
 220 469 l 1
 220 51 l 1
 356 51 l 5
 356 0 l 5
 34 0 l 1
 34 51 l 1
 170 51 l 1
 170 469 l 1
 34 469 l 1
 34 520 l 1
EndSplineSet
Validated: 1
EndChar

StartChar: J
Encoding: 74 74 36
Width: 390
VWidth: 0
Flags: HW
LayerCount: 2
Fore
SplineSet
91 521 m 1
 359 521 l 1
 359 520 l 1
 359 520 359 311 359 208 c 0
 359 135 340 81 306 47 c 0
 272 13 227 0 182 0 c 0
 135 0 96 23 70 51 c 0
 44 79 31 113 31 145 c 1
 81 145 l 1
 81 129 90 104 108 85 c 0
 126 66 150 50 182 50 c 0
 217 50 248 59 270 82 c 0
 292 105 309 143 309 208 c 0
 309 324 309 428 309 470 c 1
 91 470 l 1
 91 521 l 1
EndSplineSet
Validated: 1
EndChar

StartChar: K
Encoding: 75 75 37
Width: 390
VWidth: 0
Flags: HW
LayerCount: 2
Fore
SplineSet
28 520 m 1
 79 520 l 1
 79 225 l 1
 298 520 l 1
 361 520 l 1
 200 303 l 1
 362 0 l 1
 305 0 l 1
 168 259 l 1
 79 140 l 1
 79 0 l 1
 28 0 l 1
 28 520 l 1
EndSplineSet
Validated: 1
EndChar

StartChar: L
Encoding: 76 76 38
Width: 390
VWidth: 0
Flags: HW
LayerCount: 2
Fore
SplineSet
31 520 m 1
 82 520 l 1
 82 51 l 1
 355 51 l 5
 355 0 l 5
 31 0 l 1
 31 520 l 1
EndSplineSet
Validated: 1
EndChar

StartChar: M
Encoding: 77 77 39
Width: 390
VWidth: 0
Flags: HW
LayerCount: 2
Fore
SplineSet
314 520 m 1
 362 520 l 1
 362 -2 l 1
 312 -2 l 1
 312 407 l 1
 195 156 l 1
 78 405 l 1
 78 0 l 1
 28 0 l 1
 28 520 l 1
 76 520 l 1
 194 278 l 1
 195 272 l 1
 196 278 l 1
 314 520 l 1
EndSplineSet
Validated: 1
EndChar

StartChar: N
Encoding: 78 78 40
Width: 390
VWidth: 0
Flags: HW
LayerCount: 2
Fore
SplineSet
79 520 m 1
 308 103 l 1
 308 520 l 1
 359 520 l 1
 359 0 l 1
 311 0 l 1
 82 417 l 1
 82 0 l 1
 31 0 l 1
 31 520 l 1
 79 520 l 1
EndSplineSet
Validated: 1
EndChar

StartChar: O
Encoding: 79 79 41
Width: 390
VWidth: 0
Flags: HW
LayerCount: 2
Fore
SplineSet
195 520 m 0
 253 520 298 486 323 438 c 0
 348 390 358 328 358 261 c 0
 358 193 347 131 321 83 c 0
 295 35 251 1 195 1 c 0
 139 1 94 35 68 83 c 0
 42 131 32 193 32 261 c 0
 32 328 42 390 67 438 c 0
 92 486 137 520 195 520 c 0
195 470 m 0
 155 470 131 451 112 414 c 0
 93 377 83 323 83 261 c 0
 83 199 93 144 113 107 c 0
 133 70 157 52 195 52 c 0
 233 52 257 70 277 107 c 0
 297 144 307 199 307 261 c 0
 307 323 297 377 278 414 c 0
 259 451 235 470 195 470 c 0
EndSplineSet
Validated: 1
EndChar

StartChar: P
Encoding: 80 80 42
Width: 390
VWidth: 0
Flags: HW
LayerCount: 2
Fore
SplineSet
34 520 m 1
 34 520 151 520 210 520 c 0
 258 520 297 501 321 473 c 0
 345 445 356 410 356 375 c 0
 356 327 343 288 317 261 c 0
 291 234 252 223 210 223 c 2
 85 223 l 1
 85 0 l 1
 34 0 l 1
 34 520 l 1
85 468 m 1
 85 274 l 1
 210 274 l 2
 244 274 266 282 281 297 c 0
 296 312 305 336 305 375 c 0
 305 400 298 423 283 440 c 0
 268 457 246 468 210 468 c 2
 85 468 l 1
EndSplineSet
Validated: 1
EndChar

StartChar: Q
Encoding: 81 81 43
Width: 390
VWidth: 0
Flags: HW
LayerCount: 2
Fore
SplineSet
195 520 m 0
 253 520 298 486 323 438 c 0
 348 390 358 327 358 260 c 0
 358 194 346 131 321 83 c 1
 336 56 347 28 355 0 c 1
 302 0 l 1
 298 13 293 32 287 43 c 1
 278 34 l 0
 257 15 234 0 193 0 c 0
 152 0 104 22 73 75 c 0
 42 128 32 192 32 260 c 0
 32 327 42 390 67 438 c 0
 92 486 137 520 195 520 c 0
195 469 m 0
 155 469 131 451 112 414 c 0
 93 377 83 322 83 260 c 0
 83 198 92 142 112 105 c 0
 132 68 156 50 194 50 c 0
 223 50 244 61 261 83 c 1
 244 106 227 124 190 143 c 1
 206 185 l 1
 240 172 266 153 287 131 c 1
 299 166 307 211 307 260 c 0
 307 322 297 377 278 414 c 0
 259 451 235 469 195 469 c 0
EndSplineSet
Validated: 1
EndChar

StartChar: R
Encoding: 82 82 44
Width: 390
VWidth: 0
Flags: HW
LayerCount: 2
Fore
SplineSet
98 520 m 0
 135 520 179 520 209 520 c 0
 257 520 296 503 320 475 c 0
 344 447 355 411 355 376 c 0
 355 328 341 290 315 263 c 0
 302 250 288 241 271 235 c 1
 358 1 l 1
 304 1 l 1
 220 224 l 1
 83 224 l 1
 83 1 l 1
 32 1 l 1
 32 520 l 1
 32 520 61 520 98 520 c 0
83 470 m 1
 83 275 l 1
 209 275 l 2
 243 275 264 283 279 298 c 0
 294 313 304 337 304 376 c 0
 304 401 297 424 282 441 c 0
 267 458 245 470 209 470 c 2
 83 470 l 1
EndSplineSet
Validated: 1
EndChar

StartChar: S
Encoding: 83 83 45
Width: 390
VWidth: 0
Flags: HW
LayerCount: 2
Fore
SplineSet
199 519 m 0
 298 519 345 441 345 441 c 1
 301 416 l 1
 301 416 272 469 199 469 c 0
 161 469 135 458 118 442 c 0
 101 426 93 406 93 379 c 0
 93 355 105 340 126 326 c 0
 147 312 176 301 201 291 c 0
 223 282 257 271 288 254 c 0
 319 237 349 209 355 167 c 0
 360 129 352 88 326 55 c 0
 300 22 256 0 198 0 c 0
 140 0 98 20 72 41 c 0
 46 62 33 85 33 85 c 1
 78 108 l 1
 78 108 84 96 103 81 c 0
 122 66 151 51 198 51 c 0
 244 51 270 66 286 86 c 0
 302 106 309 134 305 160 c 0
 302 182 287 196 263 210 c 0
 239 224 208 233 182 244 c 0
 158 254 125 265 97 285 c 0
 69 305 43 336 42 378 c 0
 41 417 56 453 84 479 c 0
 112 505 151 519 199 519 c 0
EndSplineSet
Validated: 33
EndChar

StartChar: T
Encoding: 84 84 46
Width: 390
VWidth: 0
Flags: HW
LayerCount: 2
Fore
SplineSet
30 520 m 5
 360 520 l 5
 360 468 l 1
 220 468 l 1
 220 0 l 1
 170 0 l 1
 170 468 l 1
 30 468 l 1
 30 520 l 5
EndSplineSet
Validated: 1
EndChar

StartChar: U
Encoding: 85 85 47
Width: 390
VWidth: 0
Flags: HW
LayerCount: 2
Fore
SplineSet
32 520 m 1
 83 520 l 1
 83 222 l 2
 83 160 94 116 112 90 c 0
 130 64 154 51 195 51 c 0
 236 51 260 64 278 90 c 0
 296 116 307 160 307 222 c 2
 307 520 l 1
 358 520 l 1
 358 222 l 2
 358 154 347 101 320 61 c 0
 293 21 248 0 195 0 c 0
 142 0 97 21 70 61 c 0
 43 101 32 154 32 222 c 2
 32 520 l 1
EndSplineSet
Validated: 1
EndChar

StartChar: V
Encoding: 86 86 48
Width: 390
VWidth: 0
Flags: HW
LayerCount: 2
Fore
SplineSet
33 520 m 1
 85 520 l 1
 194 74 l 1
 195 66 l 1
 196 74 l 1
 305 520 l 5
 357 520 l 5
 227 0 l 1
 163 0 l 1
 33 520 l 1
EndSplineSet
Validated: 1
EndChar

StartChar: W
Encoding: 87 87 49
Width: 390
VWidth: 0
Flags: HW
LayerCount: 2
Fore
SplineSet
32 520 m 1
 83 520 l 1
 109 113 l 1
 168 303 l 1
 195 396 l 1
 222 304 l 1
 281 113 l 1
 307 520 l 1
 358 520 l 1
 325 0 l 1
 264 0 l 1
 197 222 l 1
 195 237 l 1
 193 222 l 1
 126 0 l 1
 65 0 l 1
 32 520 l 1
EndSplineSet
Validated: 1
EndChar

StartChar: X
Encoding: 88 88 50
Width: 390
VWidth: 0
Flags: HW
LayerCount: 2
Fore
SplineSet
36 520 m 5
 93 520 l 5
 195 308 l 1
 297 520 l 1
 354 520 l 1
 224 261 l 1
 356 0 l 1
 299 0 l 1
 195 214 l 1
 91 0 l 1
 34 0 l 1
 167 261 l 1
 36 520 l 5
EndSplineSet
Validated: 1
EndChar

StartChar: Y
Encoding: 89 89 51
Width: 390
VWidth: 0
Flags: HW
LayerCount: 2
Fore
SplineSet
35 521 m 1
 90 521 l 1
 195 286 l 1
 299 521 l 1
 355 521 l 1
 220 230 l 1
 220 0 l 1
 170 0 l 1
 170 230 l 1
 35 521 l 1
EndSplineSet
Validated: 1
EndChar

StartChar: Z
Encoding: 90 90 52
Width: 390
VWidth: 0
Flags: HW
LayerCount: 2
Fore
SplineSet
37 520 m 1
 352 520 l 1
 352 466 l 1
 91 51 l 1
 360 51 l 1
 360 0 l 1
 30 0 l 1
 30 50 l 1
 294 468 l 1
 37 468 l 1
 37 520 l 1
EndSplineSet
Validated: 1
EndChar

StartChar: backslash
Encoding: 92 92 54
Width: 390
VWidth: 0
Flags: HW
LayerCount: 2
Fore
SplineSet
390 -50 m 1
 80 520 l 1
 21 520 l 1
 331 -50 l 1
 390 -50 l 1
EndSplineSet
Validated: 9
EndChar

StartChar: exclam
Encoding: 33 33 225
Width: 390
VWidth: 0
Flags: HW
LayerCount: 2
Fore
SplineSet
165 520 m 1
 223 520 l 1
 223 291 l 1
 214 175 l 1
 174 175 l 1
 164.846 291 l 1
 165 520 l 1
243 49 m 0
 243 22 222 0 195 0 c 0
 168 0 147 22 147 49 c 0
 147 76 168 98 195 98 c 0
 222 98 243 76 243 49 c 0
EndSplineSet
Validated: 524289
EndChar

StartChar: quotedbl
Encoding: 34 34 226
Width: 390
VWidth: 0
Flags: HW
LayerCount: 2
Fore
SplineSet
220 520 m 1
 267 520 l 1
 267 390.4 l 1
 220 390.4 l 1
 220 520 l 1
123 520 m 1
 170 520 l 1
 170 390.4 l 1
 123 390.4 l 1
 123 520 l 1
EndSplineSet
Validated: 524289
EndChar

StartChar: numbersign
Encoding: 35 35 227
Width: 390
VWidth: 0
Flags: HW
LayerCount: 2
Fore
SplineSet
221 0 m 1
 259 454 l 1
 303 454 l 1
 265 0 l 1
 221 0 l 1
86 0 m 1
 124 454 l 1
 168 454 l 1
 130 0 l 1
 86 0 l 1
53 349 m 1
 356 349 l 1
 356 305 l 1
 53 305 l 1
 53 349 l 1
33 148 m 1
 341 148 l 1
 341 104 l 1
 33 104 l 1
 33 148 l 1
EndSplineSet
Validated: 5
EndChar

StartChar: dollar
Encoding: 36 36 228
Width: 390
VWidth: 0
Flags: HW
LayerCount: 2
Fore
SplineSet
176 568 m 1
 224 568 l 1
 224 517.263 l 1
 303.638 505.844 331 442 331 442 c 1
 287 417 l 1
 287 417 275.554 456.679 224 466.715 c 1
 224 281.204 l 1
 292.771 250.585 333.765 218.642 341 168 c 0
 350.714 94.1753 307.719 15.5798 224 2.04056 c 1
 224 -55 l 1
 176 -55 l 1
 176 0.832812 l 1
 87.9851 7.7484 62.9776 56.0448 50 82 c 1
 95 105 l 1
 113.546 74.9737 125.852 55.0862 176 51.5365 c 1
 176 246.588 l 1
 131.522 266.147 60.1089 306.246 59 375 c 0
 58.0845 431.762 96.6812 505.287 176 517.306 c 1
 176 568 l 1
176 302.324 m 1
 176 466.478 l 1
 136.651 457.491 109.156 424.93 110 376 c 0
 110.131 368.412 108.347 336.423 176 302.324 c 1
224 228.743 m 1
 224 54.2924 l 1
 278.355 68.0635 297.005 121.968 291 161 c 0
 288.818 176.999 282.498 199.214 224 228.743 c 1
EndSplineSet
Validated: 524321
EndChar

StartChar: plus
Encoding: 43 43 235
Width: 390
VWidth: 0
Flags: HW
LayerCount: 2
Fore
SplineSet
54 157 m 1
 54 210 l 1
 168.5 210 l 1
 168.5 324.5 l 1
 221.5 324.5 l 1
 221.5 210 l 1
 336 210 l 1
 336 157 l 1
 221.5 157 l 1
 221.5 42.5 l 1
 168.5 42.5 l 1
 168.5 157 l 1
 54 157 l 1
EndSplineSet
Validated: 524289
EndChar

StartChar: comma
Encoding: 44 44 236
Width: 390
VWidth: 0
Flags: HW
LayerCount: 2
Fore
SplineSet
171.5 95 m 25
 249.5 83 l 25
 188.5 -58 l 25
 140.5 -58 l 25
 171.5 95 l 25
EndSplineSet
Validated: 524289
EndChar

StartChar: hyphen
Encoding: 45 45 237
Width: 390
VWidth: 0
Flags: HW
LayerCount: 2
Fore
SplineSet
54 210 m 1
 336 210 l 1
 336 157 l 1
 54 157 l 1
 54 210 l 1
EndSplineSet
Validated: 1
EndChar

StartChar: period
Encoding: 46 46 238
Width: 390
VWidth: 0
Flags: HW
LayerCount: 2
Fore
SplineSet
243 49 m 4
 243 22 222 0 195 0 c 4
 168 0 147 22 147 49 c 4
 147 76 168 98 195 98 c 4
 222 98 243 76 243 49 c 4
EndSplineSet
Validated: 1
EndChar

StartChar: slash
Encoding: 47 47 239
Width: 390
VWidth: 0
Flags: HW
LayerCount: 2
Fore
SplineSet
10.5 -50 m 1
 320.194 520.296 l 5
 379.5 520 l 1
 69.8047 -50.2949 l 1
 10.5 -50 l 1
EndSplineSet
Validated: 524289
EndChar

StartChar: zero
Encoding: 48 48 240
Width: 390
VWidth: 0
Flags: HW
LayerCount: 2
Fore
SplineSet
195 520 m 0
 253 520 298 486 323 438 c 0
 348 390 358 328 358 261 c 0
 358 194 347 130 321 82 c 0
 295 34 251 0 195 0 c 0
 139 0 94 34 68 82 c 0
 42 130 32 194 32 261 c 0
 32 328 42 390 67 438 c 0
 92 486 137 520 195 520 c 0
195 469 m 0
 155 469 131 451 112 414 c 0
 93 377 83 323 83 261 c 0
 83 199 93 143 113 106 c 0
 133 69 157 51 195 51 c 0
 233 51 256 69 276 106 c 0
 296 143 307 199 307 261 c 0
 307 323 297 377 278 414 c 0
 259 451 235 469 195 469 c 0
195 316 m 0
 225 316 249 291 249 261 c 0
 249 231 225 207 195 207 c 0
 165 207 141 231 141 261 c 0
 141 291 165 316 195 316 c 0
EndSplineSet
Validated: 1
EndChar

StartChar: one
Encoding: 49 49 241
Width: 390
VWidth: 0
Flags: HW
LayerCount: 2
Fore
SplineSet
167 520 m 1
 223 520 l 1
 223 51 l 1
 360 51 l 1
 360 0 l 1
 30 0 l 1
 30 51 l 1
 172 51 l 1
 173 443 l 1
 137 400 104 363 60 340 c 1
 37 385 l 1
 89 412 132 462 167 520 c 1
EndSplineSet
Validated: 1
EndChar

StartChar: two
Encoding: 50 50 242
Width: 390
VWidth: 0
Flags: HW
LayerCount: 2
Fore
SplineSet
40 402 m 1
 46 432 64 468 101 493 c 0
 138 518 200 528 248 514 c 0
 295 500 338 465 347 414 c 0
 354 371 348 335 329 302 c 0
 310 269 279 238 235 192 c 0
 175 128 125 74 102 51 c 1
 360 51 l 1
 360 0 l 1
 30 0 l 1
 31 50 l 1
 31 50 142 167 199 227 c 0
 243 273 272 302 286 327 c 0
 300 352 301 379 297 406 c 0
 293 433 267 455 233 465 c 0
 199 475 159 472 131 452 c 0
 104 433 94 412 90 392 c 1
 40 402 l 1
EndSplineSet
Validated: 33
EndChar

StartChar: three
Encoding: 51 51 243
Width: 390
VWidth: 0
Flags: HW
LayerCount: 2
Fore
SplineSet
102 494 m 0
 138 518 197 528 244 516 c 0
 292 503 337 468 346 412 c 0
 355 360 337 316 303 290 c 0
 296 284 289 279 274 273 c 1
 300 267 337 232 348 192 c 0
 362 140 350 91 321 56 c 0
 292 21 247 0 198 0 c 0
 108 -1 59 45 39 87 c 1
 84 109 l 1
 93 91 121 50 198 51 c 0
 233 51 263 66 282 89 c 0
 301 112 309 141 299 178 c 0
 284 229 229 249 166 249 c 1
 171 295 l 1
 171 295 235 297 267 319 c 0
 288 335 302 366 296 404 c 0
 290 438 265 458 231 467 c 0
 197 476 156 470 131 452 c 0
 103 432 89 408 85 390 c 1
 36 400 l 1
 43 432 64 467 102 494 c 0
EndSplineSet
Validated: 33
EndChar

StartChar: four
Encoding: 52 52 244
Width: 390
VWidth: 0
Flags: HW
LayerCount: 2
Fore
SplineSet
247 520 m 1
 298 520 l 1
 298 179 l 1
 359 179 l 1
 359 129 l 1
 298 129 l 1
 298 0 l 1
 248 0 l 1
 248 129 l 1
 31 128 l 1
 31 207 l 1
 247 520 l 1
248 431 m 1
 86 192 l 1
 85 179 l 1
 248 179 l 1
 248 431 l 1
EndSplineSet
Validated: 1
EndChar

StartChar: five
Encoding: 53 53 245
Width: 390
VWidth: 0
Flags: HW
LayerCount: 2
Fore
SplineSet
63 520 m 1
 318 520 l 1
 318 469 l 1
 109 469 l 1
 96 324 l 1
 127 339 172 354 223 346 c 0
 270 339 306 317 328 286 c 0
 350 255 359 212 359 173 c 0
 359 94 312 21 230 4 c 0
 191 -4 147 -4 109 11 c 0
 71 26 40 57 31 103 c 1
 78 113 l 1
 84 84 101 68 127 58 c 0
 153 48 189 46 220 53 c 0
 278 65 308 113 308 173 c 0
 308 204 301 236 287 256 c 0
 273 276 251 290 215 296 c 0
 151 302 112 287 75 241 c 1
 37 256 l 1
 63 520 l 1
EndSplineSet
Validated: 33
EndChar

StartChar: six
Encoding: 54 54 246
Width: 390
VWidth: 0
Flags: HW
LayerCount: 2
Fore
SplineSet
161 520 m 1
 216 520 l 1
 197 472 152 357 128 295 c 0
 127 293 122 287 121 285 c 1
 142 296 170 305 195 305 c 0
 283 305 355 236 355 152 c 0
 355 68 283 0 195 0 c 0
 113 2 15 66 38 187 c 0
 46 233 55 249 80 313 c 0
 101 369 138 462 161 520 c 1
195 255 m 0
 135 255 86 209 86 152 c 0
 86 95 135 49 195 49 c 0
 255 49 303 95 303 152 c 0
 303 209 255 255 195 255 c 0
EndSplineSet
Validated: 33
EndChar

StartChar: seven
Encoding: 55 55 247
Width: 390
VWidth: 0
Flags: HW
LayerCount: 2
Fore
SplineSet
30 520 m 1
 360 520 l 1
 360 466 l 1
 103 0 l 1
 46 0 l 1
 304 469 l 1
 30 469 l 1
 30 520 l 1
EndSplineSet
Validated: 1
EndChar

StartChar: eight
Encoding: 56 56 248
Width: 390
VWidth: 0
Flags: HW
LayerCount: 2
Fore
SplineSet
195 520 m 0
 267 520 327 459 327 387 c 0
 327 345 307 309 277 285 c 1
 324 258 356 208 356 152 c 0
 356 68 283 0 195 0 c 0
 107 0 34 68 34 152 c 0
 34 208 66 258 113 285 c 1
 83 309 63 346 63 388 c 0
 63 460 123 520 195 520 c 0
195 469 m 0
 150 469 114 433 114 388 c 0
 114 343 150 304 195 304 c 0
 240 304 276 343 276 388 c 0
 276 433 240 469 195 469 c 0
195 260 m 0
 135 260 86 217 86 152 c 0
 86 87 135 49 195 49 c 0
 255 49 305 87 304 152 c 0
 303 217 255 260 195 260 c 0
EndSplineSet
Validated: 33
EndChar

StartChar: nine
Encoding: 57 57 249
Width: 390
VWidth: 0
Flags: HW
LayerCount: 2
Fore
SplineSet
232 0 m 1
 177 0 l 1
 196 48 241 163 265 225 c 0
 266 227 271 233 272 235 c 1
 251 224 223 215 198 215 c 0
 110 215 38 284 38 368 c 0
 38 452 110 520 198 520 c 0
 280 518 378 454 355 333 c 0
 347 287 338 271 313 207 c 0
 292 151 255 58 232 0 c 1
198 265 m 0
 258 265 307 311 307 368 c 0
 307 425 258 471 198 471 c 0
 138 471 90 425 90 368 c 0
 90 311 138 265 198 265 c 0
EndSplineSet
Validated: 33
EndChar

StartChar: colon
Encoding: 58 58 250
Width: 390
VWidth: 0
Flags: HW
LayerCount: 2
Fore
SplineSet
161 341 m 0
 161 314 140 292 113 292 c 0
 86 292 65 314 65 341 c 0
 65 368 86 390 113 390 c 0
 140 390 161 368 161 341 c 0
161 49 m 0
 161 22 140 0 113 0 c 0
 86 0 65 22 65 49 c 0
 65 76 86 98 113 98 c 0
 140 98 161 76 161 49 c 0
EndSplineSet
Validated: 1
EndChar

StartChar: semicolon
Encoding: 59 59 251
Width: 390
VWidth: 0
Flags: HW
LayerCount: 2
Fore
SplineSet
57 95 m 25
 135 83 l 25
 74 -58 l 25
 26 -58 l 25
 57 95 l 25
141 341 m 0
 141 314 120 292 93 292 c 0
 66 292 45 314 45 341 c 0
 45 368 66 390 93 390 c 0
 120 390 141 368 141 341 c 0
EndSplineSet
Validated: 1
EndChar

StartChar: less
Encoding: 60 60 252
Width: 390
VWidth: 0
Flags: HW
LayerCount: 2
Fore
SplineSet
58 167 m 1
 302 0 l 1
 329 41 l 1
 109 194 l 1
 109 200 l 1
 329 349 l 1
 302 390 l 1
 58 223 l 1
 58 167 l 1
EndSplineSet
Validated: 9
EndChar

StartChar: equal
Encoding: 61 61 253
Width: 390
VWidth: 0
Flags: HW
LayerCount: 2
Fore
SplineSet
54 145 m 1
 336 145 l 1
 336 92 l 1
 54 92 l 1
 54 145 l 1
54 289 m 1
 336 289 l 1
 336 236 l 1
 54 236 l 1
 54 289 l 1
EndSplineSet
Validated: 1
EndChar

StartChar: greater
Encoding: 62 62 254
Width: 390
VWidth: 0
Flags: HW
LayerCount: 2
Fore
SplineSet
332 167 m 1
 88 0 l 1
 61 41 l 1
 281 194 l 1
 281 200 l 1
 61 349 l 1
 88 390 l 1
 332 223 l 1
 332 167 l 1
EndSplineSet
Validated: 1
EndChar

StartChar: question
Encoding: 63 63 255
Width: 390
VWidth: 0
Flags: HW
LayerCount: 2
Fore
SplineSet
207 49 m 0
 207 22 186 0 159 0 c 0
 132 0 111 22 111 49 c 0
 111 76 132 98 159 98 c 0
 186 98 207 76 207 49 c 0
132 177 m 5
 132 177 127 232 169 276 c 0
 213 322 228 325 243 349 c 0
 258 373 258 387 258 409 c 0
 257 437 233 457 199 467 c 0
 165 477 129 473 101 453 c 0
 74 434 74 406 74 389 c 1
 28 378 l 1
 16 410 34 467 71 492 c 0
 108 517 166 528 214 514 c 0
 261 500 298 472 309 421 c 0
 317 382 308 355 287 324 c 0
 265 292 248 287 206 240 c 0
 189 221 188 196 185 176 c 1
 132 177 l 5
EndSplineSet
Validated: 33
EndChar
